<?xml version="1.0" encoding="utf-8"?>
<!-- Generator: Adobe Illustrator 24.0.3, SVG Export Plug-In . SVG Version: 6.00 Build 0)  -->
<svg version="1.1" id="Layer_1" xmlns="http://www.w3.org/2000/svg" xmlns:xlink="http://www.w3.org/1999/xlink" x="0px" y="0px"
	 viewBox="0 0 1920 750" style="enable-background:new 0 0 1920 750;" xml:space="preserve">
<style type="text/css">
	.st0{fill:#17354C;}
	.st1{fill:#FFFFFF;}
	.st2{fill:#3C81A9;}
	.st3{fill:#FFD53E;}
</style>
<g>
	<path class="st0" d="M1881.24,750H39.62c-21.64,0-39.19-17.55-39.19-39.19V39.19C0.43,17.55,17.98,0,39.62,0h1841.62
		c21.64,0,39.19,17.55,39.19,39.19v671.62C1920.43,732.45,1902.89,750,1881.24,750z"/>
	<g>
		<path class="st1" d="M633.17,591.43c0,25.88-14.47,44.41-35.82,44.41c-21.34,0-35.45-18.28-35.45-44.16
			c0-25.88,14.35-44.41,35.7-44.41C618.94,547.27,633.17,565.55,633.17,591.43z M623.61,591.68c0-21.59-11.41-35.7-26.38-35.7
			c-14.84,0-25.76,13.86-25.76,35.45c0,21.59,11.29,35.7,26.25,35.7C612.57,627.13,623.61,613.27,623.61,591.68z"/>
		<path class="st1" d="M700.51,634.49h-9.2v-37.66c0-13.86-4.91-20.12-15.21-20.12c-8.96,0-15.95,6.01-15.95,20.12v37.66h-9.2v-64.4
			h9.2v7.85c3.68-5.4,9.69-9.2,17.79-9.2c13.62,0,22.57,7.97,22.57,26.5V634.49z"/>
		<path class="st1" d="M730.31,634.49h-9.2v-84.28l9.2-5.15V634.49z"/>
		<path class="st1" d="M763.06,552.05c0,3.56-2.94,6.5-6.38,6.5c-3.8,0-6.75-2.94-6.75-6.5c0-3.68,2.94-6.62,6.75-6.62
			C760.11,545.43,763.06,548.37,763.06,552.05z M761.1,634.49h-9.2v-64.4h9.2V634.49z"/>
		<path class="st1" d="M831.63,634.49h-9.2v-37.66c0-13.86-4.91-20.12-15.21-20.12c-8.96,0-15.95,6.01-15.95,20.12v37.66h-9.2v-64.4
			h9.2v7.85c3.68-5.4,9.69-9.2,17.79-9.2c13.62,0,22.57,7.97,22.57,26.5V634.49z"/>
		<path class="st1" d="M900.69,600.39c0,2.21-0.12,3.56-0.37,5.03h-42.93c0.86,13.74,7.36,22.45,17.91,22.45
			c7.48,0,11.9-2.21,17.79-6.13l4.29,6.62c-7.73,4.91-13.37,7.48-23.06,7.48c-11.78,0-26.13-8.59-26.13-33.86
			c0-20.49,11.29-33.24,26.62-33.24C891.61,568.74,900.69,581.99,900.69,600.39z M892.1,597.93c-0.74-12.51-6.13-21.22-17.42-21.22
			c-9.57,0-16.19,6.87-17.3,21.22H892.1z"/>
		<path class="st1" d="M1010.34,574.26c0,17.05-11.9,26.5-29.07,26.5h-20.85v33.74h-9.57v-85.87h32.14
			C998.57,548.62,1010.34,556.84,1010.34,574.26z M1000.77,574.63c0-11.04-6.38-17.3-18.15-17.3h-22.21v34.72h20.98
			C994.52,592.05,1000.77,586.03,1000.77,574.63z"/>
		<path class="st1" d="M1075.6,570.09l-32.02,87.1h-9.2l8.83-23.43l-22.94-63.67h9.69l15.7,46.74l2.21,6.62l2.21-6.5l15.82-46.86
			H1075.6z"/>
		<path class="st1" d="M1118.4,577.82h-15.95v41.95c0,5.77,1.59,7.73,6.5,7.73c3.68,0,6.13-0.61,9.08-1.84l-0.61,7.97
			c-3.56,1.47-6.99,2.21-11.9,2.21c-7.97,0-12.27-3.93-12.27-14.6v-43.43h-7.97v-7.73h7.97v-19.87l9.2-5.15v25.03h15.95V577.82z"/>
		<path class="st1" d="M1185.87,634.49h-9.2v-37.66c0-13.86-4.91-20.12-15.21-20.12c-8.95,0-15.95,6.01-15.95,20.12v37.66h-9.2
			v-84.28l9.2-5.15v32.88c3.68-5.4,9.69-9.2,17.79-9.2c13.62,0,22.57,7.97,22.57,26.5V634.49z"/>
		<path class="st1" d="M1258.36,601.86c0,21.84-12.51,33.98-28.21,33.98c-15.7,0-27.72-11.65-27.72-33.49
			c0-21.84,12.51-33.61,28.21-33.61S1258.36,580.02,1258.36,601.86z M1249.16,602.11c0-16.93-7.61-25.39-18.77-25.39
			c-11.16,0-18.65,8.46-18.65,25.39c0,16.93,7.48,25.76,18.65,25.76C1241.55,627.87,1249.16,619.03,1249.16,602.11z"/>
		<path class="st1" d="M1324.84,634.49h-9.2v-37.66c0-13.86-4.91-20.12-15.21-20.12c-8.95,0-15.95,6.01-15.95,20.12v37.66h-9.2
			v-64.4h9.2v7.85c3.68-5.4,9.69-9.2,17.79-9.2c13.62,0,22.57,7.97,22.57,26.5V634.49z"/>
		<path class="st1" d="M1432.65,557.33h-25.27v77.16h-9.57v-77.16h-25.27v-8.71h60.11V557.33z"/>
		<path class="st1" d="M1473.62,570.33l-2.33,9.32c-2.57-1.47-5.4-2.45-9.69-2.45c-8.96,0-13.98,7.24-13.98,19.51v37.78h-9.2v-64.4
			h9.2v7.97c2.94-5.15,9.08-9.32,15.95-9.32C1468.34,568.74,1471.41,569.35,1473.62,570.33z"/>
		<path class="st1" d="M1530.17,634.49h-9.2v-7.85c-4.54,4.91-10.92,9.2-20.12,9.2c-10.06,0-20.61-5.03-20.61-20.61
			c0-14.47,11.9-20.61,24.66-20.61c6.5,0,12.27,1.59,16.07,3.68v-7.61c0-9.57-4.54-14.23-13.98-14.23c-6.75,0-12.27,1.84-17.54,4.91
			l-3.43-7.48c5.64-3.07,13.25-5.15,21.59-5.15c13.86,0,22.57,5.89,22.57,20.85V634.49z M1520.97,618.67v-13
			c-4.17-2.33-8.71-3.68-16.56-3.68c-9.45,0-15.09,4.54-15.09,12.64c0,9.57,5.27,13.74,13.13,13.74
			C1510.79,628.36,1517.04,624.06,1520.97,618.67z"/>
		<path class="st1" d="M1561.93,552.05c0,3.56-2.94,6.5-6.38,6.5c-3.8,0-6.75-2.94-6.75-6.5c0-3.68,2.94-6.62,6.75-6.62
			C1558.99,545.43,1561.93,548.37,1561.93,552.05z M1559.97,634.49h-9.2v-64.4h9.2V634.49z"/>
		<path class="st1" d="M1630.5,634.49h-9.2v-37.66c0-13.86-4.91-20.12-15.21-20.12c-8.95,0-15.95,6.01-15.95,20.12v37.66h-9.2v-64.4
			h9.2v7.85c3.68-5.4,9.69-9.2,17.79-9.2c13.62,0,22.57,7.97,22.57,26.5V634.49z"/>
		<path class="st1" d="M1662.27,552.05c0,3.56-2.94,6.5-6.38,6.5c-3.8,0-6.75-2.94-6.75-6.5c0-3.68,2.94-6.62,6.75-6.62
			C1659.32,545.43,1662.27,548.37,1662.27,552.05z M1660.3,634.49h-9.2v-64.4h9.2V634.49z"/>
		<path class="st1" d="M1730.83,634.49h-9.2v-37.66c0-13.86-4.91-20.12-15.21-20.12c-8.95,0-15.95,6.01-15.95,20.12v37.66h-9.2
			v-64.4h9.2v7.85c3.68-5.4,9.69-9.2,17.79-9.2c13.62,0,22.57,7.97,22.57,26.5V634.49z"/>
		<path class="st1" d="M1799.03,628.73c0,19.38-8.71,28.7-32.63,29.44l-2.94-6.99c21.47-0.61,26.37-6.26,26.37-21.22v-3.31
			c-4.54,4.91-10.67,9.2-19.38,9.2c-12.88,0-23.06-9.81-23.06-32.51c0-22.82,10.79-34.59,24.29-34.59c8.1,0,13.62,3.44,18.15,8.59
			v-7.24h9.2V628.73z M1789.83,618.54V586.4c-3.56-5.4-9.81-9.69-17.42-9.69c-10.67,0-15.95,9.2-15.95,26.5
			c0,16.19,6.13,24.66,16.32,24.66C1779.65,627.87,1785.29,624.19,1789.83,618.54z"/>
	</g>
	<g>
		<path id="path1948_11_" class="st2" d="M270.12,150.9c-13.88,0.06-27.13,1.25-38.79,3.31c-34.35,6.07-40.59,18.77-40.59,42.2
			v30.94h81.18v10.31h-81.18h-30.47c-23.59,0-44.25,14.18-50.72,41.16c-7.45,30.92-7.78,50.22,0,82.51
			c5.77,24.03,19.55,41.16,43.15,41.16h27.91V365.4c0-26.8,23.18-50.43,50.72-50.43h81.09c22.57,0,40.59-18.59,40.59-41.25v-77.3
			c0-22-18.56-38.53-40.59-42.2C298.46,151.89,283.99,150.84,270.12,150.9z M226.21,175.78c8.39,0,15.23,6.96,15.23,15.52
			c0,8.53-6.85,15.42-15.23,15.42c-8.42,0-15.23-6.9-15.23-15.42C210.98,182.74,217.8,175.78,226.21,175.78z"/>
		<path id="path1950_11_" class="st3" d="M363.13,237.67v36.05c0,27.95-23.7,51.47-50.72,51.47h-81.09
			c-22.21,0-40.59,19.01-40.59,41.25v77.3c0,22,19.13,34.94,40.59,41.25c25.7,7.56,50.34,8.92,81.09,0
			c20.44-5.92,40.59-17.83,40.59-41.25v-30.94h-81.09v-10.31H353h40.59c23.59,0,32.39-16.46,40.59-41.16
			c8.48-25.43,8.12-49.89,0-82.51c-5.83-23.49-16.97-41.16-40.59-41.16H363.13z M317.52,433.43c8.42,0,15.23,6.9,15.23,15.42
			c0,8.56-6.82,15.52-15.23,15.52c-8.39,0-15.23-6.96-15.23-15.52C302.29,440.33,309.13,433.43,317.52,433.43z"/>
		<g>
			<path class="st1" d="M1272.11,246.63c7.47-18.15,9.28-37.54,7.82-57.25c-0.83-11.08-4.72-21.8-11.54-30.57
				c-22.74-29.27-48.56-37.47-80.26-29.91c-28.32,6.75-52.5,21.44-73.18,41.62c-7.97,7.78-15.19,16.6-21.39,25.85
				c-10.43,15.55-16.34,32.9-15.58,51.95c0.71,17.71,11.2,31.38,27.49,36.22c2.3,0.68,4.79,0.75,7.45,1.14
				c-0.23-1.51-0.14-2.14-0.4-2.39c-1.03-0.97-2.05-2.06-3.29-2.66c-8.53-4.15-11.65-11.82-12.49-20.39
				c-0.55-5.62-0.2-11.49,0.76-17.07c2.79-16.13,10.19-30.21,20.59-42.73c22.09-26.58,50.21-43.61,83.41-52.6
				c9.32-2.52,18.84-3.66,28.38-2.52c16.28,1.95,20.09,3.08,24.46,20.83c3.79,15.42,1.7,30.84-2.1,46.05
				c-3.33,13.32-7.18,26.29-14.16,38.04c-10.38,17.46-33.92,54.38-69.42,78.46c2.29-55.23,5.26-111.15,5.39-117.93
				c0.02-0.35,0.05-0.66,0.07-1.02c-0.02-0.01-0.03-0.02-0.05-0.03c0.01-0.36,0.02-0.72,0.01-1.12c0-0.57-0.35-1.19-0.9-1.85
				c-2.1-3.93-9.9-7.58-12.98-9.92c-9.26-7.03-12.41-5.9-13.88,5.69c-3.88,22.53-3.73,40.29-5.68,85.11
				c-0.65,14.88-1.07,35.16-1.33,56.4c-12.39,4.62-25.81,7.36-40.25,7.36c-3.32,0-6.71,1.16-8.12,5.86
				c6.76,8.07,14.58,10.67,23.15,10.67c8.67,0,17-0.84,25.01-2.37c-0.16,23.19-0.15,45.76-0.03,62.03
				c0.04,5.01,9.65,10.37,13.67,13.04c9.68,6.45,12.75,5.12,13.5-6.53c-0.63-14.07,0.09-43.89,1.31-77.32
				C1226.34,331.54,1262.34,270.39,1272.11,246.63z"/>
			<path class="st1" d="M749.37,454.23c-2.58,0.12-10.39,7.64-18.4,8.02c-31.72,1.5-78.54-100.94-88.45-131.52
				c55.15-45.91,75.72-129.44,76.2-143.21c1.35-38.64-39.73-74.82-78.02-70.31c-17.43,2.06-33.48,7.52-48.71,15.7
				c-25.92,13.94-47.71,32.6-62.77,58.19c-8.72,14.83-13.89,30.92-12.95,48.43c1.01,18.67,13.84,33.78,30.77,36.46
				c1.4,0.22,2.92-0.32,4.72-0.55c-0.67-1.12-0.84-1.62-1.18-1.91c-0.9-0.77-1.8-1.63-2.85-2.12c-8.62-4.01-11.78-11.68-12.7-20.24
				c-0.6-5.62-0.29-11.5,0.66-17.08c2.58-15.12,9.2-28.56,18.71-40.54c22.49-28.33,51.76-46.23,86.51-55.33
				c12.61-3.3,25.45-3.8,38.24-0.27c4.43,1.22,8.29,3.48,9.48,7.93c12.36,46.04-22.16,133.39-83.36,174.39
				c2.23-52.36,4.91-103.08,5.03-109.51c0.02-0.35,0.05-0.66,0.07-1.02c-0.02-0.01-0.03-0.02-0.05-0.03
				c0.01-0.36,0.02-0.72,0.01-1.12c0-0.57-0.35-1.19-0.9-1.85c-2.1-3.93-9.9-7.58-12.98-9.92c-9.26-7.03-12.41-5.9-13.88,5.69
				c-3.88,22.53-3.73,40.29-5.68,85.11c-0.56,12.85-0.95,29.74-1.21,47.79c-12.68,4.59-26.15,7.18-40.3,7.18
				c-2.94,0-5.57,1.58-5.88,5.12c6.71,9.36,19.33,13.2,31.49,13.2c4.95,0,9.75-0.3,14.42-0.82c-0.2,25.07-0.2,49.93-0.07,67.48
				c0.04,5.01,9.65,10.37,13.67,13.04c9.68,6.45,12.75,5.12,13.5-6.53c-0.65-14.55,0.14-45.94,1.44-80.75
				c4.87-1.8,9.56-3.88,14.07-6.22c12.09,32.8,52.39,133.69,103.85,131.26C742.02,477.41,751.76,454.12,749.37,454.23z"/>
			<path class="st1" d="M1639.31,251.52c-2.7-0.43-5.39-1.5-7.84-2.75c-16.73-8.54-29.42-5.66-39.08,9.15
				c-2.34,3.58-4.53,7.36-6.08,11.33c-10.85,27.82-13.39,56.94-15.2,81.43c-0.04,20.37,2.15,32.02,7.2,42.13
				c9.94,19.9,21.66,24.19,40.97,21.09c7.53-1.21,13.42-5.22,16.88-12c3.02-5.93,5.82-12.05,7.95-18.35
				c8.04-23.87,12.05-48.55,14.64-73.56c1.53-14.72,0.25-29.08-2.94-43.36C1653.57,256.61,1649.35,253.11,1639.31,251.52z
				 M1640.16,310.4c-3.32,21.95-6.34,43.95-13.16,65.17c-2.11,6.57-4.81,12.97-7.64,19.26c-1.42,3.15-4.11,9.09-5.84,9.09
				c-2.07,0-9.57-9.85-11.2-15.55c-3.11-10.86-4.49-22.03-3.85-33.3c1.44-25.08,13.34-83.26,21.24-93.74
				c4.7-6.21,11.34-5.48,15.21,1.51c1.24,2.25,2.09,4.82,2.61,7.35C1640.48,284.32,1642.34,296.01,1640.16,310.4z"/>
			<path class="st1" d="M1799.03,318.34c0,0-0.39-20.3-0.65-30.69c-0.2-8.2-1.47-16.78-3.67-24.79
				c-2.6-9.47-15.85-14.15-25.07-16.37c-4.4-1.06-8.06-0.28-10.96,3.23c-5.46,6.62-42.81,87.15-45.3,93.45c0-3.95,0-7.97,0-11.98
				c0.23-8.86,0.42-20.15-0.07-32.27c-0.06-12.08-0.18-21.55-0.39-25.24c-0.29-5-9.65-10.37-13.67-13.04
				c-9.68-6.45-12.75-5.12-13.5,6.53c0,14.85,1.17,150.44,1.46,152.57c0.59,4.36,3.06,6.65,7.5,7.19
				c7.54,0.92,15.98,0.67,17.66-2.84c19.07-93.85,50.81-142.88,62.55-162.46c0,4.71,0.16,7.97-0.03,11.22
				c-0.94,16.21-2.07,32.4-2.96,48.61c-0.06,1.05-0.8,102.32-0.12,114.24c0.29,5,9.65,10.37,13.67,13.04
				c9.68,6.45,12.75,5.12,13.5-6.53C1799,419.32,1798.94,319.02,1799.03,318.34z"/>
			<path class="st1" d="M929.05,240.73c-1.03-0.41-2.09-0.79-3.16-1.09c-6.32-1.79-7.31-1.36-9.02,5.18
				c-2.78,10.62-8.6,33.49-9.37,36.25c-3-6.55-5.65-14.28-8.66-19.63c-7.76-13.76-19.22-22.81-35.53-22.81
				c-17.52,0-41,33.57-45.26,81.21c-12.01,24.25-47.94,84.09-63.83,84.09c-14.3,0-22.04-40.69-22.98-53.88
				c-0.13-1.78,0.23-3.59,0.35-5.25c18.43,2.21,33.46-3.16,45.48-16.68c10.99-12.36,18.08-26.86,23.23-42.41
				c3.73-11.27,4.45-22.91,3.94-34.68c-0.34-8.01-4.15-14.36-10.69-18.51c-12.64-8.02-26.07-10.26-40.12-3.44
				c-14.65,7.11-25.51,18.28-33.85,32.04c-11.12,18.34-12.71,38.59-15.28,59.63c-2.65,21.74,1.97,50.17,13.6,68.6
				c6.48,10.28,12.46,17.2,23.48,22.1c16.88,7.51,31.8,5.45,44.06-8.64c4.85-5.57,22.18-31.12,32.9-49.23
				c1.27,12.06,3.82,24.62,7.96,37.46c4.87,15.09,11.93,16.87,26.9,19.69c5.39,1.01,9.53-0.69,11.99-5.51
				c3.26-6.36,28.11-53.25,34.01-71.06c1.05,3.59,4.42,97.59,8.51,116c1.47,6.6,5.35,11.19,11.83,13.17
				c4.53,1.38,14.94,3.51,19.17,2.31c-3.16-7.94-4.63-26.84-5.21-36.36c-0.62-10.24-2.08-98.57,2.05-132.33
				c1.59-12.99,3.12-25.99,4.21-39.02C940.42,250.45,936.03,243.5,929.05,240.73z M746.61,276.11c7.03-13.51,22.08-34.9,38.41-34.9
				c10.65,4.87,5.9,19.08,4.89,24.44c-4.5,23.91-15.25,44.56-33.33,61.05c-6.64,6.06-14.49,8.86-24.42,9.73
				c-0.22-0.79-0.74-1.67-0.64-2.48C733.94,313.99,737.17,294.25,746.61,276.11z M889.18,314c-13.64,28.94-29.24,64.52-33.21,67.49
				c-8.81,0-15.73-124.75,17.58-124.75c3.87,0,16.36,21.32,18.12,26.25C895.32,293.27,894.1,303.56,889.18,314z"/>
			<path class="st1" d="M1026.35,417.51c-2.58,0-15.02,8.06-21.17,8.06s-8.71-38.14-8.74-49.7c0,0,4.75-185.83,4.14-197.75
				c-0.26-5-9.59-10.42-13.59-13.12c-9.64-6.5-12.72-5.19-13.54,6.45c-4.22,57.23-4.78,204.1-4.22,212.91
				c0,7.7-0.18,55.96,28.48,55.96C1017.95,440.32,1028.74,417.51,1026.35,417.51z"/>
			<path class="st1" d="M1528.01,271.13c-9.99-4.27-15.22-2.85-22.97,4.71c-11.73,11.43-38.68,79.62-38.95,79.55
				c-0.01-8.19,0.08-133.55,0.08-133.55c-0.05-23.62-0.18-45.56-0.47-50.68c-0.29-5-9.65-10.37-13.67-13.04
				c-7.73-5.15-11.2-5.32-12.67,0.74c-0.05,0.03-0.13,0-0.15,0.07c0,0.01-0.01,0.28-0.01,0.67c-0.28,1.4-0.48,3.06-0.61,5.04
				c0,25.67,0.07,84.18,0.1,110.54c-14.2-0.26-45.22-0.58-45.22-0.58c0-3.43,0.27-106.33-0.41-118.24
				c-0.29-5-9.65-10.37-13.67-13.04c-9.68-6.45-12.75-5.12-13.5,6.53c0,39.46-0.03,124.76-0.03,124.76c-5.21,0-37.18-1.55-37.18,1.5
				c0,2.9,23.39,16.85,25.54,16.85c6.3,0,11.64,0,11.64,0s-0.23,101.35,0.45,113.27c0.29,5,9.65,10.37,13.67,13.04
				c9.68,6.45,12.75,5.12,13.5-6.53l-0.01-119.78c6.81-0.27,27.55,0.41,45.24,0.59c0.03,26.26,0.22,128.4,0.32,130.12
				c0.29,5,9.65,10.37,13.67,13.04c7.66,5.1,11.17,5.31,12.68-0.59c7.43-40.74,50.57-154.83,57.84-154.95
				c0,4.47,0.34,8.04-0.06,11.52c-0.72,6.27-2.4,148.77-2.26,157.2c0.09,5.01,9.65,10.37,13.67,13.04
				c9.68,6.45,12.75,5.12,13.5-6.53c0-8.37-1.79-154.2-2.97-163.18C1543.72,282.72,1537.87,275.35,1528.01,271.13z"/>
			<path class="st1" d="M1313.6,294.76c-9.68-6.45-12.75-5.12-13.5,6.53c-16.74,99.4-39.81,134.16-43.99,134.16
				c-2.48,0-1.76-36.9-1.87-48.52l0.04-8.53c-0.11-25.31,0.21-13.54-0.47-25.45c-0.29-5-9.65-10.37-13.67-13.04
				c-9.68-6.45-12.75-5.12-13.5,6.53c0,9.72,0.54,57.18,0.54,64.23c1.41,10.96,2.58,25.62,13.13,31.17
				c19.74,10.39,28.62,7.83,40.08-9.07c5.32-7.85,18.01-43.09,18.77-44.31c-0.6,24.67,1.15,114.9-27.34,114.9
				c-25.21,0-29.96-30.79-32.97-30.79c-2.49,0-6.8,49.13,37.88,49.13c44.8,0,51.42-58.05,51.42-109.89
				c0-51.84-1.3-97.04-1.77-105.32C1326.1,301.48,1317.61,297.44,1313.6,294.76z"/>
		</g>
	</g>
</g>
</svg>
